# xmcd
#
# Track frame offsets: 
#        150
#        450
#        13785
#        32203
#        47250
#        62928
#        80460
#        95018
#        108880
#        122243
#        144045
#
# Disc length: 2081 seconds
#
# Revision: 0
# Processed by: cddbd v1.5.2PL0 Copyright (c) Steve Scherf et al.
# Submitted via: ExactAudioCopy v1.3
#
DISCID=82081f0b
DTITLE=Dutch Mason - You Can't Have Everything
DYEAR=1992
DGENRE=Blues
TTITLE0=You Can't Have Everything
TTITLE1=Going, Going, Gone
TTITLE2=I Must Be Crazy
TTITLE3=Folsom Prison Blues
TTITLE4=Hock My Ring
TTITLE5=Sticks And Stones
TTITLE6=But I Was Cool
TTITLE7=Hallelujah, I Love Her So
TTITLE8=Blues in the Dark
TTITLE9=No Mo Do Yakomo
TTITLE10=Polk Salad Annie
EXTD=
EXTT0=
EXTT1=
EXTT2=
EXTT3=
EXTT4=
EXTT5=
EXTT6=
EXTT7=
EXTT8=
EXTT9=
EXTT10=
PLAYORDER=
